# Blender v2.93.6 OBJ File: ''
# www.blender.org
mtllib lilypad1.mtl
o Cylinder_Cylinder.001
v 0.000000 0.120520 1.000000
v 0.000000 -0.120521 1.000000
v 0.433884 0.120520 0.900969
v 0.433884 -0.120521 0.900969
v 0.781832 0.120520 0.623490
v 0.781832 -0.120521 0.623490
v 0.974928 0.120520 0.222521
v 0.974928 -0.120521 0.222521
v 0.974928 0.120521 -0.222521
v 0.974928 -0.120520 -0.222521
v 0.781832 0.120521 -0.623490
v 0.781832 -0.120520 -0.623490
v 0.433884 0.120521 -0.900969
v 0.433884 -0.120520 -0.900969
v 0.781832 0.120520 0.623490
v 0.000000 0.120520 1.000000
v -0.433884 0.120521 -0.900969
v -0.433884 -0.120520 -0.900969
v -0.781832 0.120521 -0.623490
v -0.781832 -0.120520 -0.623490
v -0.974928 0.120521 -0.222521
v -0.974928 -0.120520 -0.222521
v -0.974928 0.120520 0.222521
v -0.974928 -0.120521 0.222521
v -0.781832 0.120520 0.623490
v -0.781832 -0.120521 0.623490
v -0.433884 0.120520 0.900969
v -0.433884 -0.120521 0.900969
v 0.000000 -0.120521 1.000000
v 0.433884 -0.120521 0.900969
v 0.781832 -0.120521 0.623490
v 0.974928 -0.120521 0.222521
v 0.974928 -0.120520 -0.222521
v 0.781832 -0.120520 -0.623490
v 0.433884 -0.120520 -0.900969
v 0.433884 0.120520 0.900969
v -0.433884 -0.120520 -0.900969
v -0.781832 -0.120520 -0.623490
v -0.974928 -0.120520 -0.222521
v -0.974928 -0.120521 0.222521
v -0.781832 -0.120521 0.623490
v -0.433884 -0.120521 0.900969
v 0.000000 -0.184808 -0.000000
v 0.974928 0.120520 0.222521
v 0.974928 0.120521 -0.222521
v 0.781832 0.120521 -0.623490
v 0.433884 0.120521 -0.900969
v -0.433884 0.120521 -0.900969
v -0.781832 0.120521 -0.623490
v -0.974928 0.120521 -0.222521
v -0.974928 0.120520 0.222521
v -0.781832 0.120520 0.623490
v -0.433884 0.120520 0.900969
v 0.781832 0.120520 0.623490
v 0.000000 0.120520 1.000000
v 0.433884 0.120520 0.900969
v 0.974928 0.120520 0.222521
v 0.974928 0.120521 -0.222521
v 0.781832 0.120521 -0.623490
v 0.433884 0.120521 -0.900969
v -0.433884 0.120521 -0.900969
v -0.781832 0.120521 -0.623490
v -0.974928 0.120521 -0.222521
v -0.974928 0.120520 0.222521
v -0.781832 0.120520 0.623490
v -0.433884 0.120520 0.900969
v 0.781832 0.120520 0.623490
v 0.000000 0.120520 1.000000
v 0.433884 0.120520 0.900969
v 0.974928 0.120520 0.222521
v 0.974928 0.120521 -0.222521
v 0.781832 0.120521 -0.623490
v 0.433884 0.120521 -0.900969
v -0.433884 0.120521 -0.900969
v -0.781832 0.120521 -0.623490
v -0.974928 0.120521 -0.222521
v -0.974928 0.120520 0.222521
v -0.781832 0.120520 0.623490
v -0.433884 0.120520 0.900969
v 0.781832 0.180348 0.623490
v 0.000000 0.180348 1.000000
v 0.433884 0.180348 0.900969
v 0.974928 0.180348 0.222521
v 0.974928 0.180348 -0.222521
v 0.781832 0.180348 -0.623490
v 0.433884 0.180349 -0.900969
v -0.433884 0.180349 -0.900969
v -0.781832 0.180348 -0.623490
v -0.974928 0.180348 -0.222521
v -0.974928 0.180348 0.222521
v -0.781832 0.180348 0.623490
v -0.433884 0.180348 0.900969
vt 1.000000 0.500000
vt 1.000000 1.000000
vt 0.928571 1.000000
vt 0.928571 0.500000
vt 0.857143 1.000000
vt 0.857143 0.500000
vt 0.785714 1.000000
vt 0.785714 0.500000
vt 0.714286 1.000000
vt 0.714286 0.500000
vt 0.642857 1.000000
vt 0.642857 0.500000
vt 0.571428 1.000000
vt 0.571428 0.500000
vt 0.714286 0.500000
vt 0.785714 0.500000
vt 0.142857 0.500000
vt 0.071428 0.500000
vt 0.071428 0.500000
vt 0.142857 0.500000
vt 0.428571 0.500000
vt 0.428571 1.000000
vt 0.357143 1.000000
vt 0.357143 0.500000
vt 0.285714 1.000000
vt 0.285714 0.500000
vt 0.214286 1.000000
vt 0.214286 0.500000
vt 0.142857 1.000000
vt 0.857143 1.000000
vt 0.785714 1.000000
vt 0.071428 1.000000
vt -0.000000 1.000000
vt -0.000000 0.500000
vt 0.214286 0.500000
vt 0.357143 0.500000
vt 0.428571 0.500000
vt 1.000000 1.000000
vt 0.928571 1.000000
vt 0.142857 1.000000
vt 0.071428 1.000000
vt 0.642857 1.000000
vt 0.571428 1.000000
vt 0.285714 1.000000
vt 0.214286 1.000000
vt 0.714286 1.000000
vt 0.428571 1.000000
vt 0.357143 1.000000
vt -0.000000 1.000000
vt -0.000000 0.500000
vt 0.214286 1.000000
vt 0.714286 1.000000
vt 0.142857 1.000000
vt 0.642857 1.000000
vt 0.071428 1.000000
vt 0.571428 1.000000
vt -0.000000 1.000000
vt 0.642857 0.500000
vt 0.571428 0.500000
vt 0.928571 1.000000
vt 0.357143 1.000000
vt 0.857143 1.000000
vt 0.285714 1.000000
vt 0.785714 1.000000
vt 0.928571 0.500000
vt 1.000000 0.500000
vt 0.857143 0.500000
vt 0.285714 0.500000
vt 0.000000 0.000000
vt 0.000000 0.000000
vt 0.000000 0.000000
vt 0.000000 0.000000
vt 0.000000 0.000000
vt 0.000000 0.000000
vt 0.000000 0.000000
vt 0.000000 0.000000
vt 0.000000 0.000000
vt 0.000000 0.000000
vt 0.000000 0.000000
vt 0.000000 0.000000
vt 0.000000 0.000000
vt 0.000000 0.000000
vt 0.000000 0.000000
vt 0.000000 0.000000
vt 0.000000 0.000000
vt 0.000000 0.000000
vt 0.000000 0.000000
vt 0.000000 0.000000
vt 0.000000 0.000000
vt 0.000000 0.000000
vt 0.000000 0.000000
vt 0.000000 0.000000
vt 0.000000 0.000000
vt 0.000000 0.000000
vt 0.000000 0.000000
vt 0.000000 0.000000
vt 0.000000 0.000000
vt 0.000000 0.000000
vt 0.000000 0.000000
vt 0.000000 0.000000
vt 0.000000 0.000000
vt 0.000000 0.000000
vt 0.000000 0.000000
vt 0.000000 0.000000
vt 0.000000 0.000000
vt 0.000000 0.000000
vt 0.000000 0.000000
vn 0.2225 -0.0000 0.9749
vn 0.6235 -0.0000 0.7818
vn 0.9010 -0.0000 0.4339
vn 1.0000 0.0000 0.0000
vn 0.9010 -0.0000 -0.4339
vn 0.6235 0.0000 -0.7818
vn 0.0000 0.0000 1.0000
vn -0.6235 0.0000 -0.7818
vn -0.9010 -0.0000 -0.4339
vn -1.0000 -0.0000 0.0000
vn -0.9010 -0.0000 0.4339
vn -0.6235 -0.0000 0.7818
vn -0.2225 -0.0000 0.9749
vn -0.0658 -0.9978 -0.0000
vn 0.0658 -0.9978 -0.0000
vn -0.0593 -0.9978 0.0285
vn 0.0593 -0.9978 -0.0285
vn -0.0410 -0.9978 0.0514
vn 0.0410 -0.9978 -0.0514
vn -0.0146 -0.9978 0.0641
vn 0.0146 -0.9978 0.0641
vn -0.0410 -0.9978 -0.0514
vn 0.0410 -0.9978 0.0514
vn -0.0593 -0.9978 -0.0285
vn 0.0593 -0.9978 0.0285
usemtl None
s off
f 1/1/1 2/2/1 4/3/1 3/4/1
f 3/4/2 4/3/2 6/5/2 5/6/2
f 5/6/3 6/5/3 8/7/3 7/8/3
f 7/8/4 8/7/4 10/9/4 9/10/4
f 9/10/5 10/9/5 12/11/5 11/12/5
f 11/12/6 12/11/6 14/13/6 13/14/6
f 7/8/7 9/10/7 45/15/7 44/16/7
f 25/17/7 27/18/7 53/19/7 52/20/7
f 17/21/8 18/22/8 20/23/8 19/24/8
f 19/24/9 20/23/9 22/25/9 21/26/9
f 21/26/10 22/25/10 24/27/10 23/28/10
f 23/28/11 24/27/11 26/29/11 25/17/11
f 8/7/7 6/5/7 31/30/7 32/31/7
f 25/17/12 26/29/12 28/32/12 27/18/12
f 27/18/13 28/32/13 2/33/13 1/34/13
f 23/28/7 25/17/7 52/20/7 51/35/7
f 17/21/7 19/24/7 49/36/7 48/37/7
f 4/3/7 2/2/7 29/38/7 30/39/7
f 28/32/7 26/29/7 41/40/7 42/41/7
f 14/13/7 12/11/7 34/42/7 35/43/7
f 24/27/7 22/25/7 39/44/7 40/45/7
f 10/9/7 8/7/7 32/31/7 33/46/7
f 20/23/7 18/22/7 37/47/7 38/48/7
f 2/33/7 28/32/7 42/41/7 29/49/7
f 6/5/7 4/3/7 30/39/7 31/30/7
f 27/18/7 1/34/7 16/50/7 53/19/7
f 26/29/7 24/27/7 40/45/7 41/40/7
f 12/11/7 10/9/7 33/46/7 34/42/7
f 22/25/7 20/23/7 38/48/7 39/44/7
f 40/45/14 39/44/14 43/51/14
f 33/46/15 32/31/15 43/52/15
f 41/40/16 40/45/16 43/53/16
f 34/42/17 33/46/17 43/54/17
f 42/41/18 41/40/18 43/55/18
f 35/43/19 34/42/19 43/56/19
f 29/49/20 42/41/20 43/57/20
f 9/10/7 11/12/7 46/58/7 45/15/7
f 11/12/7 13/14/7 47/59/7 46/58/7
f 30/39/21 29/38/21 43/60/21
f 38/48/22 37/47/22 43/61/22
f 31/30/23 30/39/23 43/62/23
f 39/44/24 38/48/24 43/63/24
f 32/31/25 31/30/25 43/64/25
f 1/1/7 3/4/7 36/65/7 16/66/7
f 5/6/7 7/8/7 44/16/7 15/67/7
f 21/26/7 23/28/7 51/35/7 50/68/7
f 3/4/7 5/6/7 15/67/7 36/65/7
f 19/24/7 21/26/7 50/68/7 49/36/7
f 65/69/7 66/70/7 79/71/7 78/72/7
f 63/73/7 64/74/7 77/75/7 76/76/7
f 57/77/7 58/78/7 71/79/7 70/80/7
f 55/81/7 56/82/7 69/83/7 68/84/7
f 66/70/7 55/81/7 68/84/7 79/71/7
f 56/82/7 54/85/7 67/86/7 69/83/7
f 54/85/7 57/77/7 70/80/7 67/86/7
f 59/87/7 60/88/7 73/89/7 72/90/7
f 62/91/7 63/73/7 76/76/7 75/92/7
f 64/74/7 65/69/7 78/72/7 77/75/7
f 58/78/7 59/87/7 72/90/7 71/79/7
f 61/93/7 62/91/7 75/92/7 74/94/7
f 72/90/6 73/89/6 86/95/6 85/96/6
f 75/92/9 76/76/9 89/97/9 88/98/9
f 77/75/11 78/72/11 91/99/11 90/100/11
f 71/79/5 72/90/5 85/96/5 84/101/5
f 74/94/8 75/92/8 88/98/8 87/102/8
f 78/72/12 79/71/12 92/103/12 91/99/12
f 76/76/10 77/75/10 90/100/10 89/97/10
f 70/80/4 71/79/4 84/101/4 83/104/4
f 68/84/1 69/83/1 82/105/1 81/106/1
f 79/71/13 68/84/13 81/106/13 92/103/13
f 69/83/2 67/86/2 80/107/2 82/105/2
f 67/86/3 70/80/3 83/104/3 80/107/3
