# Blender v2.93.6 OBJ File: 'tree.blend'
# www.blender.org
mtllib tree.mtl
o Cylinder
v 0.000000 1.444704 -3.071260
v -0.204554 11.831399 0.000001
v 1.428982 1.872858 -1.989396
v -0.204554 11.831399 0.000001
v 2.920942 1.444704 -0.949072
v -0.204554 11.831399 0.000001
v 2.322521 1.872858 0.760634
v -0.204554 11.831399 0.000001
v 1.805241 1.444704 2.484702
v -0.204554 11.831399 0.000001
v -0.016794 1.872858 2.460246
v -0.204554 11.831399 0.000001
v -1.805242 1.444704 2.484701
v -0.204554 11.831399 0.000001
v -2.356109 1.872858 0.760634
v -0.204554 11.831399 0.000001
v -2.920942 1.444704 -0.949072
v -0.204554 11.831399 0.000001
v -1.462570 1.872858 -1.989396
v -0.204554 11.831399 0.000001
v -0.147852 10.182213 -0.491395
v 0.197405 9.754060 -0.496939
v 0.320011 10.182215 -0.151473
v 0.420545 9.754061 0.189815
v 0.141303 10.182215 0.398533
v -0.163643 9.754060 0.614253
v -0.437007 10.182213 0.398533
v -0.747831 9.754060 0.189815
v -0.615715 10.182213 -0.151473
v -0.524691 9.754061 -0.496939
v 0.390023 8.577234 -0.704934
v 0.903505 8.149081 -0.336467
v 0.706802 8.577234 0.270014
v 0.507964 8.149081 0.880884
v -0.122538 8.577234 0.872565
v -0.772034 8.149080 0.880884
v -0.951878 8.577234 0.270014
v -1.167575 8.149080 -0.336467
v -0.635098 8.577234 -0.704934
v -0.132035 8.149080 -1.088830
v 0.838353 6.441617 -1.289341
v 1.118292 6.869771 -0.393875
v 1.417304 6.441617 0.492485
v 0.654624 6.869771 1.033149
v -0.098408 6.441617 1.593714
v -0.845838 6.869770 1.033149
v -1.614120 6.441617 0.492485
v -1.309506 6.869770 -0.393875
v -1.035170 6.441617 -1.289341
v -0.095607 6.869770 -1.275824
v 0.909164 5.227229 -1.346747
v 1.911566 4.799076 -0.642570
v 1.514136 5.227229 0.515164
v 1.156180 4.799076 1.682270
v -0.121202 5.230053 1.731574
v -1.288301 4.799075 1.682270
v -1.653536 5.227229 0.515164
v -2.043687 4.799075 -0.642570
v -1.048565 5.227229 -1.346747
v -0.066060 4.799075 -2.079400
v 1.480711 3.478684 -2.083486
v 1.918329 3.906838 -0.636810
v 2.416254 3.478685 0.795821
v 1.169073 3.906838 1.669160
v -0.033030 3.478684 2.575330
v -1.255568 3.906838 1.669160
v -2.482314 3.478684 0.795821
v -2.004822 3.906838 -0.636810
v -1.546771 3.478685 -2.083485
v -0.043247 3.906838 -2.061978
v 0.865725 4.670172 -1.235603
v 1.420545 4.670172 -0.471958
v 1.420545 4.670172 0.471959
v 0.865725 4.670172 1.235603
v -0.031993 4.670172 1.527289
v -0.929711 4.670172 1.235603
v -1.484531 4.670172 0.471959
v -1.484531 4.670172 -0.471958
v -0.929711 4.670172 -1.235603
v -0.031993 4.670172 -1.527289
v -0.064538 6.198846 -1.109424
v 0.587565 6.198846 -0.897543
v 0.990587 6.198846 -0.342831
v 0.990587 6.198846 0.342831
v 0.587565 6.198846 0.897544
v -0.064538 6.198846 1.109425
v -0.716642 6.198846 0.897544
v -1.119664 6.198846 0.342831
v -1.119664 6.198846 -0.342831
v -0.716642 6.198846 -0.897543
v -0.097542 7.888436 -0.756415
v 0.347068 7.888436 -0.611953
v 0.621852 7.888437 -0.233745
v 0.621852 7.888437 0.233746
v 0.347068 7.888437 0.611954
v -0.097542 7.888436 0.756416
v -0.542152 7.888436 0.611954
v -0.816936 7.888436 0.233746
v -0.816936 7.888436 -0.233745
v -0.542152 7.888437 -0.611952
v -0.130824 9.110422 -0.515928
v 0.172431 9.110422 -0.417394
v 0.359853 9.110422 -0.159430
v 0.359853 9.110422 0.159431
v 0.172431 9.110422 0.417395
v -0.130824 9.110422 0.515929
v -0.434079 9.110422 0.417395
v -0.621501 9.110422 0.159431
v -0.621501 9.110422 -0.159430
v -0.434079 9.110422 -0.417394
v -0.161990 10.336161 -0.258967
v -0.009773 10.336161 -0.209508
v 0.084302 10.336161 -0.080024
v 0.084302 10.336161 0.080026
v -0.009773 10.336161 0.209510
v -0.161990 10.336161 0.258968
v -0.314208 10.336161 0.209510
v -0.408283 10.336161 0.080026
v -0.408283 10.336161 -0.080025
v -0.314208 10.336161 -0.209508
v -0.008405 2.209390 0.000257
v -0.008395 2.209390 0.000283
v -0.008395 2.209390 0.000283
v -0.008395 2.209390 0.000283
v -0.008395 2.209390 0.000257
v -0.008405 2.209390 0.000257
v -0.008395 2.209390 0.000257
v -0.008395 2.209390 0.000283
v -0.008395 2.209390 0.000283
v -0.008395 2.209390 0.000283
v -0.000000 0.141743 -0.535010
v -0.000000 2.141743 -0.331587
v 0.314471 0.141743 -0.432832
v 0.194902 2.141743 -0.268259
v 0.508824 0.141743 -0.165327
v 0.315358 2.141743 -0.102466
v 0.508824 0.141743 0.165327
v 0.315358 2.141743 0.102466
v 0.314471 0.141743 0.432832
v 0.194902 2.141743 0.268260
v -0.000000 0.141743 0.535010
v -0.000000 2.141743 0.331587
v -0.314471 0.141743 0.432832
v -0.194902 2.141743 0.268259
v -0.508824 0.141743 0.165327
v -0.315358 2.141743 0.102466
v -0.508824 0.141743 -0.165327
v -0.315358 2.141743 -0.102466
v -0.314471 0.141743 -0.432832
v -0.194902 2.141743 -0.268259
v -0.000000 1.106322 -0.403987
v 0.237458 1.106322 -0.326833
v 0.384215 1.106322 -0.124839
v 0.384215 1.106322 0.124839
v 0.237458 1.106322 0.326833
v -0.000000 1.106322 0.403987
v -0.237458 1.106322 0.326833
v -0.384215 1.106322 0.124839
v -0.384215 1.106322 -0.124839
v -0.237458 1.106322 -0.326833
vt 0.934535 0.715218
vt 0.944017 0.795483
vt 0.944017 0.795483
vt 0.915817 0.697432
vt 0.944017 0.795483
vt 0.907522 0.722557
vt 0.887389 0.885220
vt 0.944017 0.795483
vt 0.893736 0.918625
vt 0.944017 0.795483
vt 0.920946 0.898701
vt 0.944017 0.795483
vt 0.939920 0.927760
vt 0.944017 0.795483
vt 0.957787 0.899174
vt 0.944017 0.795483
vt 0.985172 0.920550
vt 0.985172 0.703044
vt 0.944017 0.795483
vt 0.963169 0.717705
vt 0.944017 0.795483
vt 0.951326 0.694361
vt 0.400414 0.462772
vt 0.479597 0.503491
vt 0.430114 0.593529
vt 0.428639 0.592257
vt 0.953432 0.043225
vt 0.964854 0.009230
vt 0.970858 0.031289
vt 0.963830 0.045613
vt 0.943957 0.038485
vt 0.947665 0.023284
vt 0.934448 0.036263
vt 0.928219 0.000337
vt 0.943610 0.341616
vt 0.947799 0.356992
vt 0.927578 0.379813
vt 0.934093 0.343794
vt 0.953119 0.336824
vt 0.964554 0.370579
vt 0.963542 0.334417
vt 0.970648 0.349173
vt 0.972729 0.329420
vt 0.992032 0.358243
vt 0.981746 0.325780
vt 0.991968 0.334752
vt 0.973044 0.050566
vt 0.992131 0.021536
vt 0.992497 0.045412
vt 0.982052 0.054192
vt 0.362048 0.836713
vt 0.301466 0.847350
vt 0.319705 0.820209
vt 0.356367 0.817137
vt 0.295638 0.788379
vt 0.353217 0.798543
vt 0.057946 0.881046
vt 0.000337 0.891027
vt 0.024465 0.858941
vt 0.061185 0.862478
vt 0.006555 0.832002
vt 0.067014 0.842918
vt 0.033694 0.813777
vt 0.069474 0.822173
vt 0.019178 0.782274
vt 0.074861 0.802715
vt 0.050966 0.768576
vt 0.077953 0.784224
vt 0.372821 0.895409
vt 0.345868 0.911226
vt 0.313916 0.897123
vt 0.369739 0.876910
vt 0.328823 0.865733
vt 0.364442 0.857436
vt 0.792783 0.800085
vt 0.886715 0.791399
vt 0.862765 0.829604
vt 0.796601 0.830382
vt 0.792894 0.770276
vt 0.857159 0.758219
vt 0.790847 0.742806
vt 0.870614 0.705700
vt 0.793744 0.616869
vt 0.858112 0.628469
vt 0.871805 0.680973
vt 0.791921 0.644357
vt 0.793413 0.587022
vt 0.887334 0.595418
vt 0.797328 0.556709
vt 0.863483 0.557479
vt 0.797611 0.527086
vt 0.887334 0.518015
vt 0.800148 0.499629
vt 0.855054 0.484389
vt 0.796917 0.860003
vt 0.886715 0.869057
vt 0.854350 0.902837
vt 0.799419 0.887468
vt 0.175472 0.618210
vt 0.273501 0.622337
vt 0.241726 0.668780
vt 0.178229 0.662828
vt 0.260710 0.734335
vt 0.176733 0.703320
vt 0.765599 0.043907
vt 0.849472 0.011720
vt 0.831198 0.077676
vt 0.767529 0.084504
vt 0.863825 0.123941
vt 0.765183 0.129320
vt 0.837610 0.176505
vt 0.771736 0.174941
vt 0.863825 0.225450
vt 0.771340 0.219492
vt 0.828428 0.271385
vt 0.775605 0.259101
vt 0.184807 0.488466
vt 0.237993 0.476249
vt 0.273501 0.522650
vt 0.180658 0.528108
vt 0.245008 0.573300
vt 0.181158 0.572483
vt 0.498019 0.158884
vt 0.589738 0.157621
vt 0.554717 0.219441
vt 0.504074 0.220882
vt 0.502205 0.098360
vt 0.554141 0.095153
vt 0.499061 0.043213
vt 0.577872 0.016305
vt 0.207595 0.311909
vt 0.259398 0.315208
vt 0.283534 0.393601
vt 0.204712 0.367049
vt 0.203247 0.251406
vt 0.294964 0.252495
vt 0.209221 0.189390
vt 0.259669 0.190738
vt 0.207770 0.129202
vt 0.294964 0.126095
vt 0.211115 0.075619
vt 0.254086 0.065686
vt 0.502497 0.281061
vt 0.589738 0.284378
vt 0.548705 0.344468
vt 0.505685 0.334662
vt 0.295638 0.235681
vt 0.336797 0.310443
vt 0.328746 0.410297
vt 0.033929 0.000337
vt 0.041893 0.099855
vt 0.000337 0.174768
vt 0.031839 0.255408
vt 0.007518 0.337598
vt 0.056423 0.410182
vt 0.350734 0.000337
vt 0.302423 0.072778
vt 0.326813 0.155053
vt 0.000337 0.556595
vt 0.028561 0.622590
vt 0.040571 0.496447
vt 0.035825 0.410856
vt 0.631132 0.251714
vt 0.626982 0.337025
vt 0.590413 0.192412
vt 0.617887 0.126711
vt 0.593532 0.057740
vt 0.640759 0.000337
vt 0.005088 0.691865
vt 0.052637 0.748621
vt 0.601848 0.856527
vt 0.639198 0.904702
vt 0.634527 0.976689
vt 0.634650 0.410971
vt 0.639287 0.483012
vt 0.601848 0.531260
vt 0.625286 0.589917
vt 0.604693 0.645771
vt 0.646327 0.693687
vt 0.645013 0.694361
vt 0.604039 0.742740
vt 0.626125 0.800272
vt 0.530299 0.834416
vt 0.497296 0.798220
vt 0.507336 0.877848
vt 0.530299 0.931153
vt 0.212813 0.802789
vt 0.235706 0.749295
vt 0.235706 0.846062
vt 0.202631 0.881986
vt 0.211611 0.929920
vt 0.167363 0.954544
vt 0.506689 0.750321
vt 0.462633 0.725144
vt 0.926495 0.177391
vt 0.958866 0.161021
vt 0.992497 0.189575
vt 0.992032 0.190249
vt 0.957819 0.218596
vt 0.925804 0.202214
vt 0.908371 0.232923
vt 0.872791 0.226832
vt 0.864499 0.263989
vt 0.864499 0.115620
vt 0.873318 0.152911
vt 0.908930 0.146457
vt 0.433564 0.590400
vt 0.430149 0.593685
vt 0.430510 0.595111
vt 0.429605 0.593925
vt 0.428170 0.593055
vt 0.387343 0.562675
vt 0.430109 0.593539
vt 0.430117 0.593556
vt 0.346355 0.531963
vt 0.295638 0.606717
vt 0.359794 0.668456
vt 0.601174 0.489090
vt 0.596390 0.596606
vt 0.412128 0.724470
vt 0.601174 0.721627
vt 0.489677 0.458680
vt 0.377302 0.410971
vt 0.307194 0.511689
vt 0.941261 0.462226
vt 0.998096 0.460908
vt 0.998628 0.471967
vt 0.942067 0.475962
vt 0.999663 0.483038
vt 0.943720 0.489488
vt 0.943903 0.510397
vt 0.999663 0.517005
vt 0.998617 0.528002
vt 0.942193 0.523910
vt 0.998091 0.539053
vt 0.941304 0.537640
vt 0.998096 0.550124
vt 0.941261 0.551443
vt 0.998627 0.561183
vt 0.942067 0.565179
vt 0.999663 0.572254
vt 0.943719 0.578705
vt 0.943903 0.421180
vt 0.999663 0.427789
vt 0.998617 0.438786
vt 0.942193 0.434694
vt 0.680896 0.361348
vt 0.674333 0.370381
vt 0.663714 0.373831
vt 0.653095 0.370381
vt 0.646532 0.361348
vt 0.646532 0.350183
vt 0.653095 0.341150
vt 0.663714 0.337699
vt 0.674333 0.341150
vt 0.680896 0.350183
vt 0.998091 0.449836
vt 0.941304 0.448424
vt 0.601002 0.390431
vt 0.590413 0.375856
vt 0.590413 0.357841
vt 0.601002 0.343266
vt 0.618135 0.337699
vt 0.635269 0.343266
vt 0.645858 0.357841
vt 0.645858 0.375856
vt 0.635269 0.390431
vt 0.618135 0.395998
vt 0.888008 0.446490
vt 0.888051 0.464272
vt 0.889312 0.428716
vt 0.892044 0.410971
vt 0.889417 0.571190
vt 0.892121 0.588730
vt 0.888051 0.553488
vt 0.888008 0.535706
vt 0.889312 0.517932
vt 0.892044 0.500188
vt 0.889417 0.481974
vt 0.892121 0.499513
vn 0.0309 0.2864 -0.9576
vn 0.0171 0.2861 -0.9581
vn 0.5484 0.2934 -0.7830
vn 0.5607 0.2937 -0.7742
vn 0.9057 0.3142 -0.2847
vn 0.9065 0.3142 -0.2821
vn 0.9057 0.2999 0.2997
vn 0.9071 0.2999 0.2952
vn 0.5768 0.3042 0.7581
vn 0.5818 0.3043 0.7543
vn -0.0098 0.1400 0.9901
vn -0.0020 0.2835 0.9590
vn -0.3840 0.1832 0.9050
vn -0.5477 0.2687 0.7923
vn -0.7283 0.2114 0.6519
vn -0.9168 0.2669 0.2970
vn -0.9263 0.2571 0.2754
vn -0.9170 0.2567 -0.3055
vn 0.0000 0.0000 1.0000
vn -0.5825 0.2729 -0.7657
vn -0.5668 0.2733 -0.7772
vn 0.1427 -0.9703 -0.1955
vn 0.1287 -0.9908 -0.0411
vn 0.1134 -0.9193 0.3768
vn 0.1264 -0.7714 0.6236
vn 0.4766 -0.5817 0.6591
vn 0.4779 -0.5817 0.6581
vn -0.0342 -0.6916 0.7214
vn -0.0026 -0.6915 0.7224
vn 0.6976 -0.6794 0.2275
vn 0.6949 -0.6795 0.2356
vn 0.7743 -0.5803 -0.2523
vn 0.7745 -0.5803 -0.2517
vn 0.4266 -0.6848 -0.5908
vn 0.4049 -0.6850 -0.6057
vn -0.0034 -0.5849 -0.8111
vn -0.0004 -0.5849 -0.8111
vn -0.4215 -0.6997 -0.5768
vn -0.4413 -0.6998 -0.5617
vn -0.7689 -0.5892 -0.2485
vn -0.7685 -0.5892 -0.2495
vn -0.6761 -0.7036 0.2189
vn -0.6794 -0.7036 0.2084
vn -0.4785 -0.5872 0.6528
vn -0.4761 -0.5872 0.6546
vn 0.0028 -0.5229 0.8524
vn 0.0006 -0.5229 0.8524
vn -0.4997 -0.5384 0.6785
vn -0.4962 -0.5384 0.6811
vn -0.8096 -0.5247 0.2632
vn -0.8093 -0.5247 0.2640
vn -0.8007 -0.5404 -0.2585
vn -0.8003 -0.5404 -0.2597
vn -0.5002 -0.5242 -0.6892
vn -0.4988 -0.5242 -0.6902
vn -0.0064 -0.5362 -0.8440
vn -0.0013 -0.5362 -0.8441
vn 0.5017 -0.5221 -0.6897
vn 0.5033 -0.5221 -0.6886
vn 0.8049 -0.5315 -0.2639
vn 0.8055 -0.5315 -0.2622
vn 0.8117 -0.5213 0.2636
vn 0.8118 -0.5213 0.2630
vn 0.4935 -0.5329 0.6874
vn 0.4966 -0.5329 0.6852
vn 0.5135 -0.4875 0.7061
vn 0.5134 -0.4875 0.7062
vn -0.0008 -0.4735 0.8808
vn -0.0003 -0.4735 0.8808
vn 0.8379 -0.4731 0.2723
vn 0.8304 -0.4876 -0.2695
vn 0.8304 -0.4876 -0.2697
vn 0.5175 -0.4736 -0.7127
vn 0.5171 -0.4736 -0.7130
vn 0.0006 -0.4878 -0.8730
vn 0.0003 -0.4878 -0.8730
vn -0.5176 -0.4743 -0.7121
vn -0.5179 -0.4743 -0.7119
vn -0.8302 -0.4878 -0.2698
vn -0.8373 -0.4742 0.2719
vn -0.8374 -0.4742 0.2717
vn -0.5127 -0.4876 0.7067
vn -0.5129 -0.4876 0.7065
vn -0.0012 -0.5477 0.8367
vn -0.0001 -0.5477 0.8367
vn -0.4984 -0.5284 0.6873
vn -0.4991 -0.5284 0.6868
vn -0.7965 -0.5464 0.2588
vn -0.7966 -0.5464 0.2586
vn -0.8076 -0.5278 -0.2629
vn -0.8078 -0.5278 -0.2625
vn -0.4976 -0.5523 -0.6689
vn -0.5033 -0.5521 -0.6647
vn 0.0153 -0.5536 -0.8326
vn 0.0009 -0.5533 -0.8330
vn 0.5053 -0.5566 -0.6595
vn 0.5070 -0.5565 -0.6582
vn 0.8054 -0.5319 -0.2615
vn 0.8054 -0.5319 -0.2617
vn 0.7948 -0.5491 0.2583
vn 0.7947 -0.5491 0.2587
vn 0.4989 -0.5309 0.6850
vn 0.4981 -0.5309 0.6856
vn 0.4520 -0.6364 0.6250
vn 0.4530 -0.6364 0.6243
vn 0.0024 -0.6183 0.7860
vn -0.0004 -0.6182 0.7860
vn 0.7446 -0.6221 0.2421
vn 0.7449 -0.6221 0.2411
vn 0.7326 -0.6375 -0.2386
vn 0.7327 -0.6375 -0.2382
vn 0.4605 -0.6209 -0.6344
vn 0.4623 -0.6209 -0.6331
vn -0.0021 -0.6352 -0.7724
vn -0.0006 -0.6352 -0.7723
vn -0.4632 -0.6163 -0.6369
vn -0.4613 -0.6163 -0.6383
vn -0.7367 -0.6328 -0.2386
vn -0.7365 -0.6328 -0.2391
vn -0.7503 -0.6146 0.2437
vn -0.7500 -0.6146 0.2443
vn -0.4561 -0.6336 0.6250
vn -0.4551 -0.6336 0.6257
vn 0.0034 0.3933 -0.9194
vn -0.0008 0.3933 -0.9194
vn 0.5468 0.3636 -0.7542
vn 0.5472 0.3636 -0.7539
vn 0.8718 0.3995 -0.2836
vn 0.8722 0.3995 -0.2823
vn 0.8850 0.3658 0.2880
vn 0.8851 0.3658 0.2878
vn 0.5390 0.3972 0.7428
vn 0.5417 0.3972 0.7408
vn -0.0012 0.3604 0.9328
vn -0.0005 0.3604 0.9328
vn -0.5419 0.3895 0.7447
vn -0.5392 0.3896 0.7467
vn -0.8893 0.3549 0.2885
vn -0.8892 0.3549 0.2888
vn -0.8770 0.3871 -0.2848
vn -0.8766 0.3871 -0.2860
vn -0.5499 0.3569 -0.7551
vn -0.5495 0.3569 -0.7555
vn -0.5250 0.4430 -0.7267
vn -0.5283 0.4429 -0.7243
vn -0.0013 0.4159 -0.9094
vn 0.0001 0.4159 -0.9094
vn -0.8680 0.4087 -0.2820
vn -0.8681 0.4087 -0.2816
vn -0.8537 0.4402 0.2783
vn -0.8542 0.4402 0.2767
vn -0.5356 0.4116 0.7374
vn -0.5365 0.4116 0.7367
vn 0.0029 0.4477 0.8942
vn -0.0022 0.4476 0.8942
vn 0.5333 0.4205 0.7340
vn 0.5324 0.4205 0.7346
vn 0.8472 0.4550 0.2743
vn 0.8468 0.4549 0.2757
vn 0.8617 0.4231 -0.2799
vn 0.8616 0.4231 -0.2804
vn 0.5262 0.4521 -0.7203
vn 0.5228 0.4521 -0.7227
vn 0.0023 0.3744 -0.9272
vn -0.0033 0.3744 -0.9273
vn 0.5501 0.3497 -0.7584
vn 0.5512 0.3497 -0.7576
vn 0.8785 0.3822 -0.2867
vn 0.8790 0.3822 -0.2849
vn 0.8898 0.3529 0.2894
vn 0.8899 0.3529 0.2890
vn 0.5554 0.3819 0.7387
vn 0.5539 0.3819 0.7398
vn -0.0056 0.3594 0.9332
vn -0.0088 0.3594 0.9332
vn -0.5670 0.3729 0.7344
vn -0.5627 0.3730 0.7377
vn -0.8956 0.3366 0.2907
vn -0.8955 0.3366 0.2913
vn -0.8851 0.3666 -0.2867
vn -0.8846 0.3666 -0.2882
vn -0.5535 0.3396 -0.7605
vn -0.5524 0.3396 -0.7613
vn -0.5483 0.3551 -0.7572
vn -0.5537 0.3550 -0.7533
vn -0.0004 0.3363 -0.9417
vn 0.0026 0.3364 -0.9417
vn -0.8993 0.3247 -0.2929
vn -0.8996 0.3247 -0.2921
vn -0.8903 0.3512 0.2898
vn -0.8912 0.3512 0.2872
vn -0.5533 0.3294 0.7651
vn -0.5552 0.3293 0.7637
vn 0.0017 0.3614 0.9324
vn -0.0065 0.3613 0.9324
vn 0.5536 0.3438 0.7585
vn 0.5516 0.3438 0.7599
vn 0.8832 0.3713 0.2864
vn 0.8825 0.3713 0.2886
vn 0.8919 0.3481 -0.2888
vn 0.8916 0.3481 -0.2898
vn 0.5477 0.3675 -0.7516
vn 0.5424 0.3674 -0.7555
vn 0.0007 0.3498 -0.9368
vn -0.0116 0.3496 -0.9368
vn 0.5531 0.3449 -0.7584
vn 0.5570 0.3450 -0.7555
vn 0.8855 0.3618 -0.2916
vn 0.8867 0.3618 -0.2879
vn 0.8906 0.3512 0.2889
vn 0.8912 0.3512 0.2872
vn 0.5418 0.3572 0.7608
vn 0.5495 0.3573 0.7552
vn 0.0019 0.3353 0.9421
vn 0.0076 0.3354 0.9421
vn -0.5602 0.3423 0.7543
vn -0.5518 0.3425 0.7604
vn -0.9013 0.3187 0.2935
vn -0.9007 0.3187 0.2952
vn -0.8962 0.3377 -0.2875
vn -0.8951 0.3378 -0.2911
vn -0.5548 0.3248 -0.7660
vn -0.5513 0.3248 -0.7685
vn 0.0010 -0.9704 0.2416
vn -0.0977 -0.8105 0.5776
vn -0.1988 -0.8422 0.5011
vn -0.1138 -0.9199 0.3753
vn -0.1752 -0.9131 0.3683
vn 0.0021 -0.9908 -0.1355
vn 0.2000 -0.8420 0.5011
vn 0.1576 -0.7376 0.6566
vn 0.0026 -0.9908 -0.1355
vn -0.1414 -0.9705 -0.1955
vn -0.1291 -0.9907 -0.0429
vn 0.0007 -0.9704 0.2416
vn -0.0782 -0.9907 0.1111
vn -0.2292 -0.9705 0.0746
vn 0.0813 -0.9908 0.1082
vn 0.2304 -0.9702 0.0746
vn -0.0000 0.1029 -0.9947
vn -0.0000 0.6696 -0.7427
vn 0.4366 0.6696 -0.6009
vn 0.5847 0.1029 -0.8047
vn 0.7064 0.6696 -0.2295
vn 0.9460 0.1029 -0.3074
vn 0.7064 0.6696 0.2295
vn 0.9460 0.1029 0.3074
vn 0.4366 0.6696 0.6009
vn 0.5847 0.1029 0.8047
vn -0.0000 0.6696 0.7427
vn -0.0000 0.1029 0.9947
vn -0.4366 0.6696 0.6009
vn -0.5847 0.1029 0.8047
vn -0.7064 0.6696 0.2295
vn -0.9460 0.1029 0.3074
vn -0.7064 0.6696 -0.2295
vn -0.9460 0.1029 -0.3074
vn -0.4366 0.6696 -0.6009
vn -0.5847 0.1029 -0.8047
vn -0.0000 -0.5924 -0.8056
vn 0.4735 -0.5924 -0.6518
vn 0.7662 -0.5924 -0.2489
vn 0.7662 -0.5924 0.2489
vn 0.4735 -0.5924 0.6518
vn -0.0000 -0.5924 0.8056
vn -0.4735 -0.5924 0.6518
vn -0.7662 -0.5924 0.2489
vn -0.7662 -0.5924 -0.2489
vn -0.4735 -0.5924 -0.6518
usemtl tree_texture
s 1
f 21/1/1 2/2/2 4/3/3 22/4/4
f 22/4/4 4/3/3 6/5/5 23/6/6
f 23/7/6 6/5/5 8/8/7 24/9/8
f 24/9/8 8/8/7 10/10/9 25/11/10
f 25/11/10 10/10/9 12/12/11 26/13/12
f 26/13/12 12/12/11 14/14/13 27/15/14
f 27/15/14 14/14/13 16/16/15 28/17/16
f 28/18/16 16/16/15 18/19/17 29/20/18
f 4/3/19 2/2/19 20/21/19 18/19/17 16/16/15 14/14/13 12/12/11 10/10/9 8/8/7 6/5/5
f 29/20/18 18/19/17 20/21/20 30/22/21
f 30/22/21 20/21/20 2/2/2 21/1/1
f 13/23/22 15/24/23 128/25/24 127/26/25
f 120/27/26 30/28/27 21/29/28 111/30/29
f 119/31/30 29/32/31 30/28/27 120/27/26
f 118/33/32 28/34/33 29/32/31 119/31/30
f 117/35/34 27/36/35 28/37/33 118/38/32
f 116/39/36 26/40/37 27/36/35 117/35/34
f 115/41/38 25/42/39 26/40/37 116/39/36
f 114/43/40 24/44/41 25/42/39 115/41/38
f 113/45/42 23/46/43 24/44/41 114/43/40
f 112/47/44 22/48/45 23/49/43 113/50/42
f 111/30/29 21/29/28 22/48/45 112/47/44
f 101/51/46 40/52/47 31/53/48 102/54/49
f 102/54/49 31/53/48 32/55/50 103/56/51
f 103/57/51 32/58/50 33/59/52 104/60/53
f 104/60/53 33/59/52 34/61/54 105/62/55
f 105/62/55 34/61/54 35/63/56 106/64/57
f 106/64/57 35/63/56 36/65/58 107/66/59
f 107/66/59 36/65/58 37/67/60 108/68/61
f 108/69/61 37/70/60 38/71/62 109/72/63
f 109/72/63 38/71/62 39/73/64 110/74/65
f 110/74/65 39/73/64 40/52/47 101/51/46
f 100/75/66 49/76/67 50/77/68 91/78/69
f 99/79/70 48/80/70 49/76/67 100/75/66
f 98/81/71 47/82/72 48/80/70 99/79/70
f 97/83/73 46/84/74 47/85/72 98/86/71
f 96/87/75 45/88/76 46/84/74 97/83/73
f 95/89/77 44/90/78 45/88/76 96/87/75
f 94/91/79 43/92/79 44/90/78 95/89/77
f 93/93/80 42/94/81 43/92/79 94/91/79
f 92/95/82 41/96/83 42/97/81 93/98/80
f 91/78/69 50/77/68 41/96/83 92/95/82
f 81/99/84 60/100/85 51/101/86 82/102/87
f 82/102/87 51/101/86 52/103/88 83/104/89
f 83/105/89 52/106/88 53/107/90 84/108/91
f 84/108/91 53/107/90 54/109/92 85/110/93
f 85/110/93 54/109/92 55/111/94 86/112/95
f 86/112/95 55/111/94 56/113/96 87/114/97
f 87/114/97 56/113/96 57/115/98 88/116/99
f 88/117/99 57/118/98 58/119/100 89/120/101
f 89/120/101 58/119/100 59/121/102 90/122/103
f 90/122/103 59/121/102 60/100/85 81/99/84
f 79/123/104 69/124/105 70/125/106 80/126/107
f 78/127/108 68/128/109 69/124/105 79/123/104
f 77/129/110 67/130/111 68/128/109 78/127/108
f 76/131/112 66/132/113 67/133/111 77/134/110
f 75/135/114 65/136/115 66/132/113 76/131/112
f 74/137/116 64/138/117 65/136/115 75/135/114
f 73/139/118 63/140/119 64/138/117 74/137/116
f 72/141/120 62/142/121 63/140/119 73/139/118
f 71/143/122 61/144/123 62/145/121 72/146/120
f 80/126/107 70/125/106 61/144/123 71/143/122
f 1/147/124 80/126/125 71/143/126 3/148/127
f 3/148/127 71/143/126 72/146/128 5/149/129
f 5/150/129 72/141/128 73/139/130 7/151/131
f 7/151/131 73/139/130 74/137/132 9/152/133
f 9/152/133 74/137/132 75/135/134 11/153/135
f 11/153/135 75/135/134 76/131/136 13/154/137
f 13/154/137 76/131/136 77/134/138 15/155/139
f 15/156/139 77/129/138 78/127/140 17/157/141
f 17/157/141 78/127/140 79/123/142 19/158/143
f 19/158/143 79/123/142 80/126/125 1/147/124
f 69/159/144 90/122/145 81/99/146 70/160/147
f 68/161/148 89/120/149 90/122/145 69/159/144
f 67/162/150 88/117/151 89/120/149 68/161/148
f 66/163/152 87/114/153 88/116/151 67/164/150
f 65/165/154 86/112/155 87/114/153 66/163/152
f 64/166/156 85/110/157 86/112/155 65/165/154
f 63/167/158 84/108/159 85/110/157 64/166/156
f 62/168/160 83/105/161 84/108/159 63/167/158
f 61/169/162 82/102/163 83/104/161 62/170/160
f 70/160/147 81/99/146 82/102/163 61/169/162
f 60/171/164 91/78/165 92/95/166 51/172/167
f 51/172/167 92/95/166 93/98/168 52/173/169
f 52/174/169 93/93/168 94/91/170 53/175/171
f 53/175/171 94/91/170 95/89/172 54/176/173
f 54/176/173 95/89/172 96/87/174 55/177/175
f 55/177/175 96/87/174 97/83/176 56/178/177
f 56/178/177 97/83/176 98/86/178 57/179/179
f 57/180/179 98/81/178 99/79/180 58/181/181
f 58/181/181 99/79/180 100/75/182 59/182/183
f 59/182/183 100/75/182 91/78/165 60/171/164
f 49/183/184 110/74/185 101/51/186 50/184/187
f 48/185/188 109/72/189 110/74/185 49/183/184
f 47/186/190 108/69/191 109/72/189 48/185/188
f 46/187/192 107/66/193 108/68/191 47/188/190
f 45/189/194 106/64/195 107/66/193 46/187/192
f 44/190/196 105/62/197 106/64/195 45/189/194
f 43/191/198 104/60/199 105/62/197 44/190/196
f 42/192/200 103/57/201 104/60/199 43/191/198
f 41/193/202 102/54/203 103/56/201 42/194/200
f 50/184/187 101/51/186 102/54/203 41/193/202
f 40/195/204 111/30/205 112/47/206 31/196/207
f 31/196/207 112/47/206 113/50/208 32/197/209
f 32/198/209 113/45/208 114/43/210 33/199/211
f 33/199/211 114/43/210 115/41/212 34/200/213
f 34/200/213 115/41/212 116/39/214 35/201/215
f 35/201/215 116/39/214 117/35/216 36/202/217
f 36/202/217 117/35/216 118/38/218 37/203/219
f 37/204/219 118/33/218 119/31/220 38/205/221
f 38/205/221 119/31/220 120/27/222 39/206/223
f 39/206/223 120/27/222 111/30/205 40/195/204
f 121/207/224 122/208/225 123/209/226 124/210/227 125/211/228 126/212/229 127/26/25 128/25/24 129/213/230 130/214/231
f 11/215/232 13/23/22 127/26/25 126/212/229
f 9/216/233 11/215/232 126/212/229 125/211/228
f 7/217/234 9/216/233 125/211/228 124/210/227
f 1/218/235 3/219/236 122/208/225 121/207/224
f 5/220/237 7/217/234 124/210/227 123/209/226
f 3/219/236 5/221/237 123/209/226 122/208/225
f 19/222/238 1/218/235 121/207/224 130/214/231
f 17/223/239 19/222/238 130/214/231 129/213/230
f 15/224/23 17/223/239 129/213/230 128/25/24
f 151/225/240 132/226/241 134/227/242 152/228/243
f 152/228/243 134/227/242 136/229/244 153/230/245
f 153/231/245 136/232/244 138/233/246 154/234/247
f 154/234/247 138/233/246 140/235/248 155/236/249
f 155/236/249 140/235/248 142/237/250 156/238/251
f 156/238/251 142/237/250 144/239/252 157/240/253
f 157/240/253 144/239/252 146/241/254 158/242/255
f 158/243/255 146/244/254 148/245/256 159/246/257
f 134/247/242 132/248/241 150/249/258 148/250/256 146/251/254 144/252/252 142/253/250 140/254/248 138/255/246 136/256/244
f 159/246/257 148/245/256 150/257/258 160/258/259
f 160/258/259 150/257/258 132/226/241 151/225/240
f 131/259/260 133/260/261 135/261/262 137/262/263 139/263/264 141/264/265 143/265/266 145/266/267 147/267/268 149/268/269
f 149/269/269 160/258/259 151/225/240 131/270/260
f 147/271/268 159/246/257 160/258/259 149/269/269
f 145/272/267 158/243/255 159/246/257 147/271/268
f 143/273/266 157/240/253 158/242/255 145/274/267
f 141/275/265 156/238/251 157/240/253 143/273/266
f 139/276/264 155/236/249 156/238/251 141/275/265
f 137/277/263 154/234/247 155/236/249 139/276/264
f 135/278/262 153/231/245 154/234/247 137/277/263
f 133/279/261 152/228/243 153/230/245 135/280/262
f 131/270/260 151/225/240 152/228/243 133/279/261
